<svg xmlns="http://www.w3.org/2000/svg" viewBox="0 0 32 32" shape-rendering="crispEdges"><rect x="10" y="4" width="1" height="1" fill="#000000" /><rect x="11" y="4" width="1" height="1" fill="#000000" /><rect x="12" y="4" width="1" height="1" fill="#000000" /><rect x="13" y="4" width="1" height="1" fill="#000000" /><rect x="14" y="4" width="1" height="1" fill="#000000" /><rect x="15" y="4" width="1" height="1" fill="#000000" /><rect x="16" y="4" width="1" height="1" fill="#000000" /><rect x="17" y="4" width="1" height="1" fill="#000000" /><rect x="18" y="4" width="1" height="1" fill="#000000" /><rect x="19" y="4" width="1" height="1" fill="#000000" /><rect x="9" y="5" width="1" height="1" fill="#000000" /><rect x="10" y="5" width="1" height="1" fill="#222222" /><rect x="11" y="5" width="1" height="1" fill="#222222" /><rect x="12" y="5" width="1" height="1" fill="#222222" /><rect x="13" y="5" width="1" height="1" fill="#222222" /><rect x="14" y="5" width="1" height="1" fill="#222222" /><rect x="15" y="5" width="1" height="1" fill="#222222" /><rect x="16" y="5" width="1" height="1" fill="#222222" /><rect x="17" y="5" width="1" height="1" fill="#222222" /><rect x="18" y="5" width="1" height="1" fill="#222222" /><rect x="19" y="5" width="1" height="1" fill="#222222" /><rect x="20" y="5" width="1" height="1" fill="#000000" /><rect x="8" y="6" width="1" height="1" fill="#000000" /><rect x="9" y="6" width="1" height="1" fill="#222222" /><rect x="10" y="6" width="1" height="1" fill="#222222" /><rect x="11" y="6" width="1" height="1" fill="#222222" /><rect x="12" y="6" width="1" height="1" fill="#222222" /><rect x="13" y="6" width="1" height="1" fill="#222222" /><rect x="14" y="6" width="1" height="1" fill="#222222" /><rect x="15" y="6" width="1" height="1" fill="#222222" /><rect x="16" y="6" width="1" height="1" fill="#222222" /><rect x="17" y="6" width="1" height="1" fill="#222222" /><rect x="18" y="6" width="1" height="1" fill="#222222" /><rect x="19" y="6" width="1" height="1" fill="#222222" /><rect x="20" y="6" width="1" height="1" fill="#222222" /><rect x="21" y="6" width="1" height="1" fill="#000000" /><rect x="7" y="7" width="1" height="1" fill="#000000" /><rect x="8" y="7" width="1" height="1" fill="#222222" /><rect x="9" y="7" width="1" height="1" fill="#222222" /><rect x="10" y="7" width="1" height="1" fill="#222222" /><rect x="11" y="7" width="1" height="1" fill="#222222" /><rect x="12" y="7" width="1" height="1" fill="#222222" /><rect x="13" y="7" width="1" height="1" fill="#222222" /><rect x="14" y="7" width="1" height="1" fill="#222222" /><rect x="15" y="7" width="1" height="1" fill="#222222" /><rect x="16" y="7" width="1" height="1" fill="#222222" /><rect x="17" y="7" width="1" height="1" fill="#222222" /><rect x="18" y="7" width="1" height="1" fill="#222222" /><rect x="19" y="7" width="1" height="1" fill="#222222" /><rect x="20" y="7" width="1" height="1" fill="#222222" /><rect x="21" y="7" width="1" height="1" fill="#222222" /><rect x="22" y="7" width="1" height="1" fill="#000000" /><rect x="6" y="8" width="1" height="1" fill="#000000" /><rect x="7" y="8" width="1" height="1" fill="#222222" /><rect x="8" y="8" width="1" height="1" fill="#222222" /><rect x="9" y="8" width="1" height="1" fill="#222222" /><rect x="10" y="8" width="1" height="1" fill="#222222" /><rect x="11" y="8" width="1" height="1" fill="#222222" /><rect x="12" y="8" width="1" height="1" fill="#222222" /><rect x="13" y="8" width="1" height="1" fill="#222222" /><rect x="14" y="8" width="1" height="1" fill="#222222" /><rect x="15" y="8" width="1" height="1" fill="#222222" /><rect x="16" y="8" width="1" height="1" fill="#222222" /><rect x="17" y="8" width="1" height="1" fill="#222222" /><rect x="18" y="8" width="1" height="1" fill="#222222" /><rect x="19" y="8" width="1" height="1" fill="#222222" /><rect x="20" y="8" width="1" height="1" fill="#222222" /><rect x="21" y="8" width="1" height="1" fill="#222222" /><rect x="22" y="8" width="1" height="1" fill="#222222" /><rect x="23" y="8" width="1" height="1" fill="#000000" /><rect x="5" y="9" width="1" height="1" fill="#000000" /><rect x="6" y="9" width="1" height="1" fill="#222222" /><rect x="7" y="9" width="1" height="1" fill="#222222" /><rect x="8" y="9" width="1" height="1" fill="#222222" /><rect x="9" y="9" width="1" height="1" fill="#222222" /><rect x="10" y="9" width="1" height="1" fill="#222222" /><rect x="11" y="9" width="1" height="1" fill="#222222" /><rect x="12" y="9" width="1" height="1" fill="#222222" /><rect x="13" y="9" width="1" height="1" fill="#222222" /><rect x="14" y="9" width="1" height="1" fill="#222222" /><rect x="15" y="9" width="1" height="1" fill="#222222" /><rect x="16" y="9" width="1" height="1" fill="#222222" /><rect x="17" y="9" width="1" height="1" fill="#222222" /><rect x="18" y="9" width="1" height="1" fill="#222222" /><rect x="19" y="9" width="1" height="1" fill="#222222" /><rect x="20" y="9" width="1" height="1" fill="#222222" /><rect x="21" y="9" width="1" height="1" fill="#222222" /><rect x="22" y="9" width="1" height="1" fill="#222222" /><rect x="23" y="9" width="1" height="1" fill="#222222" /><rect x="24" y="9" width="1" height="1" fill="#000000" /><rect x="5" y="10" width="1" height="1" fill="#000000" /><rect x="6" y="10" width="1" height="1" fill="#222222" /><rect x="7" y="10" width="1" height="1" fill="#222222" /><rect x="8" y="10" width="1" height="1" fill="#222222" /><rect x="9" y="10" width="1" height="1" fill="#222222" /><rect x="10" y="10" width="1" height="1" fill="#222222" /><rect x="11" y="10" width="1" height="1" fill="#222222" /><rect x="12" y="10" width="1" height="1" fill="#222222" /><rect x="13" y="10" width="1" height="1" fill="#222222" /><rect x="14" y="10" width="1" height="1" fill="#222222" /><rect x="15" y="10" width="1" height="1" fill="#222222" /><rect x="16" y="10" width="1" height="1" fill="#222222" /><rect x="17" y="10" width="1" height="1" fill="#222222" /><rect x="18" y="10" width="1" height="1" fill="#222222" /><rect x="19" y="10" width="1" height="1" fill="#222222" /><rect x="20" y="10" width="1" height="1" fill="#222222" /><rect x="21" y="10" width="1" height="1" fill="#222222" /><rect x="22" y="10" width="1" height="1" fill="#222222" /><rect x="23" y="10" width="1" height="1" fill="#222222" /><rect x="24" y="10" width="1" height="1" fill="#000000" /><rect x="5" y="11" width="1" height="1" fill="#000000" /><rect x="6" y="11" width="1" height="1" fill="#222222" /><rect x="7" y="11" width="1" height="1" fill="#222222" /><rect x="8" y="11" width="1" height="1" fill="#222222" /><rect x="9" y="11" width="1" height="1" fill="#222222" /><rect x="10" y="11" width="1" height="1" fill="#222222" /><rect x="11" y="11" width="1" height="1" fill="#222222" /><rect x="12" y="11" width="1" height="1" fill="#222222" /><rect x="13" y="11" width="1" height="1" fill="#222222" /><rect x="14" y="11" width="1" height="1" fill="#222222" /><rect x="15" y="11" width="1" height="1" fill="#222222" /><rect x="16" y="11" width="1" height="1" fill="#222222" /><rect x="17" y="11" width="1" height="1" fill="#222222" /><rect x="18" y="11" width="1" height="1" fill="#222222" /><rect x="19" y="11" width="1" height="1" fill="#222222" /><rect x="20" y="11" width="1" height="1" fill="#222222" /><rect x="21" y="11" width="1" height="1" fill="#222222" /><rect x="22" y="11" width="1" height="1" fill="#222222" /><rect x="23" y="11" width="1" height="1" fill="#222222" /><rect x="24" y="11" width="1" height="1" fill="#000000" /><rect x="5" y="12" width="1" height="1" fill="#000000" /><rect x="6" y="12" width="1" height="1" fill="#222222" /><rect x="7" y="12" width="1" height="1" fill="#222222" /><rect x="8" y="12" width="1" height="1" fill="#222222" /><rect x="9" y="12" width="1" height="1" fill="#222222" /><rect x="10" y="12" width="1" height="1" fill="#222222" /><rect x="11" y="12" width="1" height="1" fill="#000000" /><rect x="12" y="12" width="1" height="1" fill="#000000" /><rect x="13" y="12" width="1" height="1" fill="#000000" /><rect x="14" y="12" width="1" height="1" fill="#000000" /><rect x="15" y="12" width="1" height="1" fill="#000000" /><rect x="16" y="12" width="1" height="1" fill="#000000" /><rect x="17" y="12" width="1" height="1" fill="#000000" /><rect x="18" y="12" width="1" height="1" fill="#000000" /><rect x="19" y="12" width="1" height="1" fill="#222222" /><rect x="20" y="12" width="1" height="1" fill="#222222" /><rect x="21" y="12" width="1" height="1" fill="#222222" /><rect x="22" y="12" width="1" height="1" fill="#222222" /><rect x="23" y="12" width="1" height="1" fill="#222222" /><rect x="24" y="12" width="1" height="1" fill="#000000" /><rect x="6" y="13" width="1" height="1" fill="#000000" /><rect x="7" y="13" width="1" height="1" fill="#000000" /><rect x="8" y="13" width="1" height="1" fill="#000000" /><rect x="9" y="13" width="1" height="1" fill="#000000" /><rect x="10" y="13" width="1" height="1" fill="#000000" /><rect x="11" y="13" width="1" height="1" fill="#000000" /><rect x="18" y="13" width="1" height="1" fill="#000000" /><rect x="19" y="13" width="1" height="1" fill="#000000" /><rect x="20" y="13" width="1" height="1" fill="#000000" /><rect x="21" y="13" width="1" height="1" fill="#000000" /><rect x="22" y="13" width="1" height="1" fill="#000000" /><rect x="23" y="13" width="1" height="1" fill="#000000" /></svg>