<svg xmlns="http://www.w3.org/2000/svg" viewBox="0 0 32 32" shape-rendering="crispEdges"><rect x="8" y="22" width="1" height="1" fill="#8c6e43" /><rect x="21" y="22" width="1" height="1" fill="#8c6e43" /><rect x="9" y="23" width="1" height="1" fill="#8c6e43" /><rect x="13" y="23" width="1" height="1" fill="#8c6e43" /><rect x="14" y="23" width="1" height="1" fill="#8c6e43" /><rect x="15" y="23" width="1" height="1" fill="#8c6e43" /><rect x="16" y="23" width="1" height="1" fill="#8c6e43" /><rect x="20" y="23" width="1" height="1" fill="#8c6e43" /><rect x="9" y="24" width="1" height="1" fill="#8c6e43" /><rect x="13" y="24" width="1" height="1" fill="#8c6e43" /><rect x="14" y="24" width="1" height="1" fill="#e6cea8" /><rect x="15" y="24" width="1" height="1" fill="#e6cea8" /><rect x="16" y="24" width="1" height="1" fill="#8c6e43" /><rect x="20" y="24" width="1" height="1" fill="#8c6e43" /><rect x="10" y="25" width="1" height="1" fill="#8c6e43" /><rect x="13" y="25" width="1" height="1" fill="#8c6e43" /><rect x="14" y="25" width="1" height="1" fill="#e6cea8" /><rect x="15" y="25" width="1" height="1" fill="#e6cea8" /><rect x="16" y="25" width="1" height="1" fill="#8c6e43" /><rect x="19" y="25" width="1" height="1" fill="#8c6e43" /><rect x="11" y="26" width="1" height="1" fill="#8c6e43" /><rect x="12" y="26" width="1" height="1" fill="#8c6e43" /><rect x="13" y="26" width="1" height="1" fill="#8c6e43" /><rect x="14" y="26" width="1" height="1" fill="#8c6e43" /><rect x="15" y="26" width="1" height="1" fill="#8c6e43" /><rect x="16" y="26" width="1" height="1" fill="#8c6e43" /><rect x="17" y="26" width="1" height="1" fill="#8c6e43" /><rect x="18" y="26" width="1" height="1" fill="#8c6e43" /></svg>