<svg xmlns="http://www.w3.org/2000/svg" viewBox="0 0 32 32" shape-rendering="crispEdges"><rect x="6" y="16" width="1" height="1" fill="#8c6e43" /><rect x="9" y="16" width="1" height="1" fill="#8c6e43" /><rect x="20" y="16" width="1" height="1" fill="#8c6e43" /><rect x="23" y="16" width="1" height="1" fill="#8c6e43" /><rect x="6" y="17" width="1" height="1" fill="#8c6e43" /><rect x="7" y="17" width="1" height="1" fill="#e6cea8" /><rect x="8" y="17" width="1" height="1" fill="#8c6e43" /><rect x="21" y="17" width="1" height="1" fill="#8c6e43" /><rect x="22" y="17" width="1" height="1" fill="#e6cea8" /><rect x="23" y="17" width="1" height="1" fill="#8c6e43" /><rect x="6" y="18" width="1" height="1" fill="#8c6e43" /><rect x="7" y="18" width="1" height="1" fill="#e6cea8" /><rect x="8" y="18" width="1" height="1" fill="#e6cea8" /><rect x="9" y="18" width="1" height="1" fill="#8c6e43" /><rect x="20" y="18" width="1" height="1" fill="#8c6e43" /><rect x="21" y="18" width="1" height="1" fill="#e6cea8" /><rect x="22" y="18" width="1" height="1" fill="#e6cea8" /><rect x="23" y="18" width="1" height="1" fill="#8c6e43" /><rect x="7" y="19" width="1" height="1" fill="#8c6e43" /><rect x="8" y="19" width="1" height="1" fill="#e6cea8" /><rect x="9" y="19" width="1" height="1" fill="#e6cea8" /><rect x="10" y="19" width="1" height="1" fill="#8c6e43" /><rect x="19" y="19" width="1" height="1" fill="#8c6e43" /><rect x="20" y="19" width="1" height="1" fill="#e6cea8" /><rect x="21" y="19" width="1" height="1" fill="#e6cea8" /><rect x="22" y="19" width="1" height="1" fill="#8c6e43" /><rect x="7" y="20" width="1" height="1" fill="#8c6e43" /><rect x="8" y="20" width="1" height="1" fill="#e6cea8" /><rect x="9" y="20" width="1" height="1" fill="#e6cea8" /><rect x="10" y="20" width="1" height="1" fill="#8c6e43" /><rect x="19" y="20" width="1" height="1" fill="#8c6e43" /><rect x="20" y="20" width="1" height="1" fill="#e6cea8" /><rect x="21" y="20" width="1" height="1" fill="#e6cea8" /><rect x="22" y="20" width="1" height="1" fill="#8c6e43" /><rect x="8" y="21" width="1" height="1" fill="#8c6e43" /><rect x="9" y="21" width="1" height="1" fill="#e6cea8" /><rect x="10" y="21" width="1" height="1" fill="#e6cea8" /><rect x="11" y="21" width="1" height="1" fill="#8c6e43" /><rect x="12" y="21" width="1" height="1" fill="#8c6e43" /><rect x="13" y="21" width="1" height="1" fill="#8c6e43" /><rect x="14" y="21" width="1" height="1" fill="#8c6e43" /><rect x="15" y="21" width="1" height="1" fill="#8c6e43" /><rect x="16" y="21" width="1" height="1" fill="#8c6e43" /><rect x="17" y="21" width="1" height="1" fill="#8c6e43" /><rect x="18" y="21" width="1" height="1" fill="#8c6e43" /><rect x="19" y="21" width="1" height="1" fill="#e6cea8" /><rect x="20" y="21" width="1" height="1" fill="#e6cea8" /><rect x="21" y="21" width="1" height="1" fill="#8c6e43" /><rect x="8" y="22" width="1" height="1" fill="#8c6e43" /><rect x="9" y="22" width="1" height="1" fill="#e6cea8" /><rect x="10" y="22" width="1" height="1" fill="#e6cea8" /><rect x="11" y="22" width="1" height="1" fill="#e6cea8" /><rect x="12" y="22" width="1" height="1" fill="#e6cea8" /><rect x="13" y="22" width="1" height="1" fill="#e6cea8" /><rect x="14" y="22" width="1" height="1" fill="#e6cea8" /><rect x="15" y="22" width="1" height="1" fill="#e6cea8" /><rect x="16" y="22" width="1" height="1" fill="#e6cea8" /><rect x="17" y="22" width="1" height="1" fill="#e6cea8" /><rect x="18" y="22" width="1" height="1" fill="#e6cea8" /><rect x="19" y="22" width="1" height="1" fill="#e6cea8" /><rect x="20" y="22" width="1" height="1" fill="#e6cea8" /><rect x="21" y="22" width="1" height="1" fill="#8c6e43" /><rect x="9" y="23" width="1" height="1" fill="#8c6e43" /><rect x="10" y="23" width="1" height="1" fill="#e6cea8" /><rect x="11" y="23" width="1" height="1" fill="#e6cea8" /><rect x="12" y="23" width="1" height="1" fill="#e6cea8" /><rect x="13" y="23" width="1" height="1" fill="#e6cea8" /><rect x="14" y="23" width="1" height="1" fill="#e6cea8" /><rect x="15" y="23" width="1" height="1" fill="#e6cea8" /><rect x="16" y="23" width="1" height="1" fill="#e6cea8" /><rect x="17" y="23" width="1" height="1" fill="#e6cea8" /><rect x="18" y="23" width="1" height="1" fill="#e6cea8" /><rect x="19" y="23" width="1" height="1" fill="#e6cea8" /><rect x="20" y="23" width="1" height="1" fill="#8c6e43" /><rect x="9" y="24" width="1" height="1" fill="#8c6e43" /><rect x="10" y="24" width="1" height="1" fill="#e6cea8" /><rect x="11" y="24" width="1" height="1" fill="#e6cea8" /><rect x="12" y="24" width="1" height="1" fill="#e6cea8" /><rect x="13" y="24" width="1" height="1" fill="#e6cea8" /><rect x="14" y="24" width="1" height="1" fill="#e6cea8" /><rect x="15" y="24" width="1" height="1" fill="#e6cea8" /><rect x="16" y="24" width="1" height="1" fill="#e6cea8" /><rect x="17" y="24" width="1" height="1" fill="#e6cea8" /><rect x="18" y="24" width="1" height="1" fill="#e6cea8" /><rect x="19" y="24" width="1" height="1" fill="#e6cea8" /><rect x="20" y="24" width="1" height="1" fill="#8c6e43" /><rect x="10" y="25" width="1" height="1" fill="#8c6e43" /><rect x="11" y="25" width="1" height="1" fill="#8c6e43" /><rect x="12" y="25" width="1" height="1" fill="#e6cea8" /><rect x="13" y="25" width="1" height="1" fill="#e6cea8" /><rect x="14" y="25" width="1" height="1" fill="#e6cea8" /><rect x="15" y="25" width="1" height="1" fill="#e6cea8" /><rect x="16" y="25" width="1" height="1" fill="#e6cea8" /><rect x="17" y="25" width="1" height="1" fill="#e6cea8" /><rect x="18" y="25" width="1" height="1" fill="#8c6e43" /><rect x="19" y="25" width="1" height="1" fill="#8c6e43" /><rect x="12" y="26" width="1" height="1" fill="#8c6e43" /><rect x="13" y="26" width="1" height="1" fill="#8c6e43" /><rect x="14" y="26" width="1" height="1" fill="#8c6e43" /><rect x="15" y="26" width="1" height="1" fill="#8c6e43" /><rect x="16" y="26" width="1" height="1" fill="#8c6e43" /><rect x="17" y="26" width="1" height="1" fill="#8c6e43" /></svg>